<svg xmlns="http://www.w3.org/2000/svg" width="400" height="400" viewBox="0 0 400 400">
<g>
<path d="M 390.75 200.25 L 390.50 390.50 L 200.25 390.75 L 10.00 391.01 L 10.00 10.00 L 391.01 10.00 ZM 38.46 360.75 C38.84,361.74 72.16,362.00 200.47,362.00 L 362.00 362.00 L 362.00 37.99 L 38.50 38.50 L 38.24 199.00 C38.10,287.27 38.20,360.06 38.46,360.75 ZM 237.04 199.00 L 236.50 247.50 L 212.93 247.77 C199.97,247.91 189.06,247.73 188.68,247.35 C188.31,246.97 188.00,235.72 188.00,222.33 L 188.00 198.00 L 210.00 198.00 L 210.00 176.00 L 236.00 176.00 L 236.00 104.00 L 165.00 104.00 L 165.00 176.00 L 117.00 176.00 L 117.00 104.00 L 139.00 104.00 L 139.00 80.00 L 259.00 80.00 L 259.00 103.00 L 285.00 103.00 L 285.00 199.00 ZM 237.00 273.00 L 237.00 319.00 L 188.00 319.00 L 188.00 273.00 ZM 339.06 315.00 L 338.50 338.50 L 315.00 339.06 L 315.00 315.00 ZM 339.06 62.00 L 338.50 85.50 L 315.00 86.06 L 315.00 62.00 ZM 85.78 73.75 L 85.50 85.50 L 74.45 85.78 C68.37,85.94 63.08,85.75 62.70,85.36 C62.31,84.98 62.00,79.57 62.00,73.33 L 62.00 62.00 L 86.06 62.00 ZM 85.78 326.75 L 85.50 338.50 L 74.45 338.78 C68.37,338.94 63.08,338.75 62.70,338.36 C62.31,337.98 62.00,332.57 62.00,326.33 L 62.00 315.00 L 86.06 315.00 Z" fill="rgb(0,0,0)"/>
<path d="M 0.00 200.00 L 0.00 0.00 L 200.00 0.00 L 400.00 0.00 L 400.00 200.00 L 400.00 400.00 L 200.00 400.00 L 0.00 400.00 L 0.00 200.00 ZM 390.75 200.25 L 391.01 10.00 L 200.50 10.00 L 10.00 10.00 L 10.00 200.50 L 10.00 391.01 L 200.25 390.75 L 390.50 390.50 L 390.75 200.25 ZM 38.46 360.75 C38.20,360.06 38.10,287.27 38.24,199.00 L 38.50 38.50 L 200.25 38.25 L 362.00 37.99 L 362.00 200.00 L 362.00 362.00 L 200.47 362.00 C72.16,362.00 38.84,361.74 38.46,360.75 ZM 85.78 326.75 L 86.06 315.00 L 74.03 315.00 L 62.00 315.00 L 62.00 326.33 C62.00,332.57 62.31,337.98 62.70,338.36 C63.08,338.75 68.37,338.94 74.45,338.78 L 85.50 338.50 L 85.78 326.75 ZM 338.78 326.75 L 339.06 315.00 L 327.03 315.00 L 315.00 315.00 L 315.00 327.03 L 315.00 339.06 L 326.75 338.78 L 338.50 338.50 L 338.78 326.75 ZM 237.00 296.00 L 237.00 273.00 L 212.50 273.00 L 188.00 273.00 L 188.00 296.00 L 188.00 319.00 L 212.50 319.00 L 237.00 319.00 L 237.00 296.00 ZM 236.77 223.25 L 237.04 199.00 L 261.02 199.00 L 285.00 199.00 L 285.00 151.00 L 285.00 103.00 L 272.00 103.00 L 259.00 103.00 L 259.00 91.50 L 259.00 80.00 L 199.00 80.00 L 139.00 80.00 L 139.00 92.00 L 139.00 104.00 L 128.00 104.00 L 117.00 104.00 L 117.00 140.00 L 117.00 176.00 L 141.00 176.00 L 165.00 176.00 L 165.00 140.00 L 165.00 104.00 L 200.50 104.00 L 236.00 104.00 L 236.00 140.00 L 236.00 176.00 L 223.00 176.00 L 210.00 176.00 L 210.00 187.00 L 210.00 198.00 L 199.00 198.00 L 188.00 198.00 L 188.00 222.33 C188.00,235.72 188.31,246.97 188.68,247.35 C189.06,247.73 199.97,247.91 212.93,247.77 L 236.50 247.50 L 236.77 223.25 ZM 85.78 73.75 L 86.06 62.00 L 74.03 62.00 L 62.00 62.00 L 62.00 73.33 C62.00,79.57 62.31,84.98 62.70,85.36 C63.08,85.75 68.37,85.94 74.45,85.78 L 85.50 85.50 L 85.78 73.75 ZM 338.78 73.75 L 339.06 62.00 L 327.03 62.00 L 315.00 62.00 L 315.00 74.03 L 315.00 86.06 L 326.75 85.78 L 338.50 85.50 L 338.78 73.75 Z" fill="rgb(254,254,254)"/>
</g>
</svg>